<svg xmlns="http://www.w3.org/2000/svg" width="128" height="128" viewBox="0 0 24 24"><g fill="none" stroke="#4f46e5" stroke-linecap="round" stroke-width="1.5"><path stroke-linejoin="round" d="M20.935 11.009V8.793a2.978 2.978 0 0 0-1.529-2.61l-5.957-3.307a2.978 2.978 0 0 0-2.898 0L4.594 6.182a2.978 2.978 0 0 0-1.529 2.611v6.414a2.978 2.978 0 0 0 1.529 2.61l5.957 3.307a2.978 2.978 0 0 0 2.898 0l2.522-1.4"/><path stroke-linejoin="round" d="M20.33 6.996L12 12L3.67 6.996M12 21.49V12"/><path stroke-miterlimit="10" d="M18.15 14.714a1.332 1.332 0 0 1 1.452-.755a1.291 1.291 0 0 1 .948.675a1.121 1.121 0 0 1-.654 1.542a.828.828 0 0 0-.533.748v.309"/><path stroke-linejoin="round" d="M19.34 18.937h.002"/></g></svg>